<?xml version="1.0" standalone="no"?><!DOCTYPE svg PUBLIC "-//W3C//DTD SVG 1.1//EN" "http://www.w3.org/Graphics/SVG/1.1/DTD/svg11.dtd"><svg t="1533026031491" class="icon" style="" viewBox="0 0 1024 1024" version="1.1" xmlns="http://www.w3.org/2000/svg" p-id="2226" xmlns:xlink="http://www.w3.org/1999/xlink" width="200" height="200"><defs><style type="text/css"></style></defs><path d="M435.2 460.8h102.4c14.103273 0 25.6-11.473455 25.6-25.6v-102.4c0-14.103273-11.496727-25.6-25.6-25.6h-102.4a25.6 25.6 0 0 0-25.6 25.6v102.4a25.6 25.6 0 0 0 25.6 25.6M819.2 384h-153.6a25.6 25.6 0 0 0-25.6 25.6v25.6c0 14.103273 11.473455 25.6 25.6 25.6h153.6a25.6 25.6 0 0 0 25.6-25.6v-25.6a25.6 25.6 0 0 0-25.6-25.6M819.2 588.8H435.2a25.6 25.6 0 0 0-25.6 25.6v25.6a25.6 25.6 0 0 0 25.6 25.6h384a25.6 25.6 0 0 0 25.6-25.6v-25.6a25.6 25.6 0 0 0-25.6-25.6" p-id="2227" fill="#66ccff"></path><path d="M870.4 25.6H384a153.576727 153.576727 0 0 0-153.6 153.6v614.4H179.2v-512H153.6A153.576727 153.576727 0 0 0 0 435.2v409.6a153.6 153.6 0 0 0 153.6 153.6H870.4c84.852364 0 153.6-68.747636 153.6-153.6V179.2a153.6 153.6 0 0 0-153.6-153.6m76.8 819.2a76.8 76.8 0 0 1-76.8 76.8H435.2v1.629091H256v-1.629091H152.506182c-41.797818 0-75.706182-36.026182-75.706182-80.453818V438.853818c0-23.901091 10.030545-45.149091 25.6-59.904V870.4h204.8V179.2c0-42.449455 34.373818-76.8 76.8-76.8h486.4a76.8 76.8 0 0 1 76.8 76.8v665.6z" p-id="2228" fill="#66ccff"></path></svg>