<?xml version="1.0" standalone="no"?><!DOCTYPE svg PUBLIC "-//W3C//DTD SVG 1.1//EN" "http://www.w3.org/Graphics/SVG/1.1/DTD/svg11.dtd"><svg t="1533026597116" class="icon" style="" viewBox="0 0 1024 1024" version="1.1" xmlns="http://www.w3.org/2000/svg" p-id="2222" xmlns:xlink="http://www.w3.org/1999/xlink" width="200" height="200"><defs><style type="text/css"></style></defs><path d="M 889.1 732.2 a 41.34 41.34 0 0 0 6.7 -26.65 v -174.9 c 0 -23.78 -17.9 -43 -40 -43 c -22.08 0 -40 19.27 -40 43 v 157.1 L 551.93 840.13 V 535.41 l 320.68 -185.16 a 45.69 45.69 0 0 0 7.93 -5.8 a 37.54 37.54 0 0 0 9.49997 -10.88 c 11 -19.12 3.33 -44.23 -17.22 -56.09 L 534.61 82.2 c -0.93 -0.54 -1.88 -1 -2.84 -1.5 a 41.94 41.94 0 0 0 -20.86 -4.61 H 510 a 41.65 41.65 0 0 0 -15.5 3.73 a 45.57 45.57 0 0 0 -4.63 2.33 l -339 195.71 a 44.6 44.6 0 0 0 -20.1 24.21 a 45.08 45.08 0 0 0 -2.77 15.55 v 389.35 c -0.79 15.14 7.34 30.61 22.17 39.18 l 338.27 195.28 A 45.5 45.5 0 0 0 504 947 c 1 0.22 2.07 0.39 3.12 0.53 l 0.63 0.08 h 0.15 a 44.75 44.75 0 0 0 27.8 -5.8 l 335.81 -193.87 a 41 41 0 0 0 17.59 -15.74 Z M 512.42 161.72 l 263.42 152.07 L 512 466.15 l -263.45 -152.1 Z M 208 383 l 264 152.39 v 304.19 L 208 687.17 Z" fill="#66ccff" p-id="2223"></path></svg>