<?xml version="1.0" standalone="no"?><!DOCTYPE svg PUBLIC "-//W3C//DTD SVG 1.1//EN" "http://www.w3.org/Graphics/SVG/1.1/DTD/svg11.dtd"><svg t="1533024012857" class="icon" style="" viewBox="0 0 1024 1024" version="1.1" xmlns="http://www.w3.org/2000/svg" p-id="1537" xmlns:xlink="http://www.w3.org/1999/xlink" width="200" height="200"><defs><style type="text/css"></style></defs><path d="M512 616m-40 0a40 40 0 1 0 80 0 40 40 0 1 0-80 0Z" fill="#66ccff" p-id="1538"></path><path d="M890 128H744a40 40 0 0 0-40 40 40 40 0 0 0 40 40h96a40 40 0 0 1 40 40v416a40 40 0 0 1-40 40H648.88a70 70 0 0 0-49.5 20.5l-59.5 59.5L512 811.88 484.12 784l-40-40-19.5-19.5a70 70 0 0 0-49.5-20.5H184a40 40 0 0 1-40-40V248a40 40 0 0 1 40-40h96a40 40 0 0 0 40-40 40 40 0 0 0-40-40H134a70 70 0 0 0-70 70v516a70 70 0 0 0 70 70h237l112.72 112.74a40 40 0 0 0 56.56 0L653 784h237a70 70 0 0 0 70-70V198a70 70 0 0 0-70-70z" fill="#66ccff" p-id="1539"></path><path d="M512 512a40 40 0 0 0 40-40V168a40 40 0 0 0-80 0v304a40 40 0 0 0 40 40z" fill="#66ccff" p-id="1540"></path></svg>